G04 #@! TF.GenerationSoftware,KiCad,Pcbnew,5.0.2-bee76a0~70~ubuntu18.04.1*
G04 #@! TF.CreationDate,2019-10-06T12:17:10+09:00*
G04 #@! TF.ProjectId,MRR_ESPA,4d52525f-4553-4504-912e-6b696361645f,v1.3*
G04 #@! TF.SameCoordinates,Original*
G04 #@! TF.FileFunction,Paste,Bot*
G04 #@! TF.FilePolarity,Positive*
%FSLAX46Y46*%
G04 Gerber Fmt 4.6, Leading zero omitted, Abs format (unit mm)*
G04 Created by KiCad (PCBNEW 5.0.2-bee76a0~70~ubuntu18.04.1) date Sun 06 Oct 2019 12:17:10 PM JST*
%MOMM*%
%LPD*%
G01*
G04 APERTURE LIST*
%ADD10C,0.254000*%
G04 APERTURE END LIST*
D10*
G36*
X123063000Y-110617000D02*
X111633000Y-110617000D01*
X111633000Y-104521000D01*
X123063000Y-104521000D01*
X123063000Y-110617000D01*
X123063000Y-110617000D01*
G37*
X123063000Y-110617000D02*
X111633000Y-110617000D01*
X111633000Y-104521000D01*
X123063000Y-104521000D01*
X123063000Y-110617000D01*
G36*
X58273295Y-67995562D02*
X49719598Y-68170325D01*
X49766975Y-65782519D01*
X49766998Y-65779368D01*
X49737629Y-59876134D01*
X58292696Y-59817870D01*
X58273295Y-67995562D01*
X58273295Y-67995562D01*
G37*
X58273295Y-67995562D02*
X49719598Y-68170325D01*
X49766975Y-65782519D01*
X49766998Y-65779368D01*
X49737629Y-59876134D01*
X58292696Y-59817870D01*
X58273295Y-67995562D01*
G36*
X139723000Y-74474063D02*
X130937000Y-74547927D01*
X130937000Y-70484187D01*
X139723000Y-70427817D01*
X139723000Y-74474063D01*
X139723000Y-74474063D01*
G37*
X139723000Y-74474063D02*
X130937000Y-74547927D01*
X130937000Y-70484187D01*
X139723000Y-70427817D01*
X139723000Y-74474063D01*
G36*
X139827000Y-69469000D02*
X130937000Y-69469000D01*
X130937000Y-65405000D01*
X139827000Y-65405000D01*
X139827000Y-69469000D01*
X139827000Y-69469000D01*
G37*
X139827000Y-69469000D02*
X130937000Y-69469000D01*
X130937000Y-65405000D01*
X139827000Y-65405000D01*
X139827000Y-69469000D01*
G36*
X139827000Y-101473000D02*
X130429000Y-101473000D01*
X130429000Y-97917000D01*
X139827000Y-97917000D01*
X139827000Y-101473000D01*
X139827000Y-101473000D01*
G37*
X139827000Y-101473000D02*
X130429000Y-101473000D01*
X130429000Y-97917000D01*
X139827000Y-97917000D01*
X139827000Y-101473000D01*
G36*
X123862197Y-97625803D02*
X123903399Y-97653333D01*
X123952000Y-97663000D01*
X128651000Y-97663000D01*
X128651000Y-101600000D01*
X128660667Y-101648601D01*
X128688197Y-101689803D01*
X129704197Y-102705803D01*
X129745399Y-102733333D01*
X129794000Y-102743000D01*
X139827000Y-102743000D01*
X139827000Y-106553000D01*
X127306606Y-106553000D01*
X125057803Y-104304197D01*
X125044200Y-104292400D01*
X124028200Y-103530400D01*
X123983519Y-103508973D01*
X123952000Y-103505000D01*
X107823000Y-103505000D01*
X107823000Y-96901000D01*
X123137394Y-96901000D01*
X123862197Y-97625803D01*
X123862197Y-97625803D01*
G37*
X123862197Y-97625803D02*
X123903399Y-97653333D01*
X123952000Y-97663000D01*
X128651000Y-97663000D01*
X128651000Y-101600000D01*
X128660667Y-101648601D01*
X128688197Y-101689803D01*
X129704197Y-102705803D01*
X129745399Y-102733333D01*
X129794000Y-102743000D01*
X139827000Y-102743000D01*
X139827000Y-106553000D01*
X127306606Y-106553000D01*
X125057803Y-104304197D01*
X125044200Y-104292400D01*
X124028200Y-103530400D01*
X123983519Y-103508973D01*
X123952000Y-103505000D01*
X107823000Y-103505000D01*
X107823000Y-96901000D01*
X123137394Y-96901000D01*
X123862197Y-97625803D01*
G36*
X121793000Y-88392000D02*
X121802667Y-88440601D01*
X121833583Y-88485065D01*
X125389583Y-91787065D01*
X125431775Y-91813051D01*
X125476000Y-91821000D01*
X139827000Y-91821000D01*
X139827000Y-96644866D01*
X124767480Y-96393874D01*
X123787803Y-95414197D01*
X123746601Y-95386667D01*
X123698000Y-95377000D01*
X104267000Y-95377000D01*
X104267000Y-79121000D01*
X121793000Y-79121000D01*
X121793000Y-88392000D01*
X121793000Y-88392000D01*
G37*
X121793000Y-88392000D02*
X121802667Y-88440601D01*
X121833583Y-88485065D01*
X125389583Y-91787065D01*
X125431775Y-91813051D01*
X125476000Y-91821000D01*
X139827000Y-91821000D01*
X139827000Y-96644866D01*
X124767480Y-96393874D01*
X123787803Y-95414197D01*
X123746601Y-95386667D01*
X123698000Y-95377000D01*
X104267000Y-95377000D01*
X104267000Y-79121000D01*
X121793000Y-79121000D01*
X121793000Y-88392000D01*
G36*
X129443574Y-75774651D02*
X129482543Y-75805260D01*
X129539900Y-75819000D01*
X139673000Y-75826979D01*
X139673000Y-79674951D01*
X126298280Y-79882051D01*
X124305170Y-77390664D01*
X124267261Y-77358752D01*
X124206000Y-77343000D01*
X109347000Y-77343000D01*
X109347000Y-71430180D01*
X112064293Y-68959914D01*
X123386706Y-68708305D01*
X129443574Y-75774651D01*
X129443574Y-75774651D01*
G37*
X129443574Y-75774651D02*
X129482543Y-75805260D01*
X129539900Y-75819000D01*
X139673000Y-75826979D01*
X139673000Y-79674951D01*
X126298280Y-79882051D01*
X124305170Y-77390664D01*
X124267261Y-77358752D01*
X124206000Y-77343000D01*
X109347000Y-77343000D01*
X109347000Y-71430180D01*
X112064293Y-68959914D01*
X123386706Y-68708305D01*
X129443574Y-75774651D01*
G36*
X139673000Y-85125594D02*
X123063000Y-85468352D01*
X123063000Y-80897711D01*
X139673000Y-80728302D01*
X139673000Y-85125594D01*
X139673000Y-85125594D01*
G37*
X139673000Y-85125594D02*
X123063000Y-85468352D01*
X123063000Y-80897711D01*
X139673000Y-80728302D01*
X139673000Y-85125594D01*
G36*
X139827000Y-90805000D02*
X126033655Y-90805000D01*
X122809000Y-87828395D01*
X122809000Y-86487000D01*
X139827000Y-86487000D01*
X139827000Y-90805000D01*
X139827000Y-90805000D01*
G37*
X139827000Y-90805000D02*
X126033655Y-90805000D01*
X122809000Y-87828395D01*
X122809000Y-86487000D01*
X139827000Y-86487000D01*
X139827000Y-90805000D01*
M02*
