M48
;DRILL file {KiCad 5.0.2-bee76a0~70~ubuntu18.04.1} date Sat 27 Jul 2019 08:09:06 PM JST
;FORMAT={-:-/ absolute / inch / decimal}
FMAT,2
INCH,TZ
T1C0.0118
T2C0.0157
T3C0.0236
T4C0.0315
T5C0.0335
T6C0.0374
T7C0.0394
T8C0.0400
T9C0.0512
%
G90
G05
T1
X4.2891Y-2.1164
X4.2891Y-2.1636
X4.3324Y-2.1164
X4.3324Y-2.1636
X4.3836Y-2.1164
X4.3836Y-2.1636
X4.4309Y-2.1164
X4.4309Y-2.1636
T2
X1.83Y-3.07
X1.85Y-3.7
X1.89Y-2.08
X1.89Y-3.06
X1.9488Y-3.311
X1.96Y-4.61
X1.98Y-2.19
X1.98Y-2.86
X2.Y-3.72
X2.01Y-3.76
X2.02Y-1.85
X2.02Y-2.08
X2.03Y-2.19
X2.03Y-2.86
X2.0354Y-3.3189
X2.05Y-2.46
X2.05Y-2.53
X2.05Y-2.6
X2.05Y-4.6
X2.08Y-2.86
X2.12Y-3.77
X2.13Y-2.46
X2.13Y-2.53
X2.13Y-2.6
X2.13Y-4.2598
X2.13Y-4.59
X2.2Y-2.46
X2.2Y-2.53
X2.2Y-2.6
X2.2318Y-3.67
X2.28Y-1.9892
X2.28Y-3.73
X2.29Y-3.23
X2.3Y-3.63
X2.33Y-2.19
X2.33Y-2.86
X2.38Y-1.99
X2.38Y-2.86
X2.43Y-2.86
X2.46Y-3.65
X2.48Y-4.2598
X2.49Y-3.29
X2.49Y-3.72
X2.55Y-3.16
X2.5709Y-3.9134
X2.59Y-2.58
X2.61Y-4.87
X2.6303Y-5.2138
X2.64Y-2.52
X2.65Y-2.88
X2.67Y-3.04
X2.6831Y-5.2138
X2.69Y-4.6387
X2.71Y-3.64
X2.72Y-4.84
X2.7358Y-5.2138
X2.752Y-4.3937
X2.76Y-4.26
X2.77Y-2.96
X2.77Y-3.29
X2.78Y-2.19
X2.79Y-2.
X2.79Y-3.12
X2.8Y-2.14
X2.8Y-4.76
X2.84Y-3.16
X2.85Y-4.57
X2.86Y-4.72
X2.872Y-2.4773
X2.88Y-4.36
X2.89Y-4.61
X2.91Y-4.87
X2.9133Y-2.4773
X2.92Y-2.07
X2.94Y-2.2
X2.94Y-2.25
X2.95Y-2.99
X2.95Y-3.1
X2.95Y-3.26
X2.95Y-4.64
X2.97Y-4.82
X2.98Y-4.56
X2.99Y-4.39
X3.02Y-2.23
X3.03Y-4.31
X3.03Y-4.88
X3.05Y-1.93
X3.05Y-3.25
X3.09Y-2.3
X3.12Y-4.
X3.13Y-2.45
X3.14Y-2.94
X3.17Y-2.3
X3.17Y-4.26
X3.19Y-2.13
X3.2Y-2.94
X3.21Y-3.96
X3.22Y-1.9
X3.22Y-3.25
X3.24Y-2.56
X3.25Y-2.93
X3.28Y-2.49
X3.28Y-2.63
X3.29Y-2.35
X3.3Y-3.88
X3.3111Y-2.6606
X3.33Y-2.12
X3.33Y-2.55
X3.349Y-4.8786
X3.36Y-2.79
X3.38Y-2.04
X3.38Y-2.26
X3.38Y-2.42
X3.38Y-3.31
X3.39Y-3.72
X3.41Y-4.32
X3.42Y-2.34
X3.4325Y-3.1249
X3.44Y-2.54
X3.44Y-4.13
X3.45Y-2.67
X3.45Y-4.4028
X3.46Y-2.29
X3.46Y-2.43
X3.46Y-3.36
X3.46Y-4.91
X3.47Y-4.16
X3.4767Y-4.84
X3.48Y-3.82
X3.49Y-4.08
X3.5189Y-5.2031
X3.52Y-3.89
X3.52Y-4.54
X3.5298Y-4.1002
X3.53Y-3.27
X3.54Y-3.82
X3.56Y-2.16
X3.58Y-3.36
X3.58Y-4.42
X3.5862Y-5.2157
X3.59Y-3.69
X3.59Y-4.64
X3.6Y-4.29
X3.6Y-4.92
X3.61Y-2.29
X3.62Y-4.78
X3.63Y-3.42
X3.6357Y-4.6443
X3.64Y-2.57
X3.64Y-3.8
X3.65Y-3.09
X3.66Y-2.69
X3.66Y-3.47
X3.66Y-3.66
X3.66Y-3.88
X3.67Y-4.79
X3.6705Y-5.2094
X3.69Y-3.92
X3.7Y-2.49
X3.71Y-2.99
X3.71Y-3.12
X3.72Y-4.29
X3.72Y-4.38
X3.73Y-3.24
X3.73Y-4.54
X3.76Y-2.55
X3.76Y-3.18
X3.76Y-3.92
X3.79Y-2.69
X3.8Y-3.66
X3.82Y-3.2
X3.83Y-4.57
X3.86Y-4.38
X3.86Y-4.8657
X3.88Y-2.96
X3.89Y-2.81
X3.9Y-2.04
X3.9Y-4.28
X3.94Y-4.21
X3.97Y-3.75
X4.01Y-2.55
X4.01Y-2.9
X4.02Y-4.01
X4.02Y-4.18
X4.06Y-3.92
X4.09Y-2.94
X4.15Y-4.35
X4.16Y-2.86
X4.1661Y-3.9224
X4.1713Y-4.2008
X4.18Y-2.75
X4.21Y-4.8615
X4.252Y-3.3984
X4.2575Y-3.5075
X4.26Y-3.69
X4.2606Y-3.2843
X4.2874Y-3.4488
X4.2925Y-3.3398
X4.2969Y-3.2201
X4.3Y-4.32
X4.3161Y-3.3965
X4.32Y-3.71
X4.3217Y-3.5067
X4.328Y-3.2732
X4.34Y-2.87
X4.3504Y-3.3323
X4.3579Y-3.4457
X4.36Y-3.68
X4.3634Y-3.2189
X4.3672Y-4.7415
X4.376Y-5.2008
X4.38Y-4.6087
X4.389Y-3.2799
X4.3933Y-3.5031
X4.3941Y-3.3933
X4.4Y-3.01
X4.4Y-3.72
X4.42Y-2.45
X4.4209Y-3.3343
X4.43Y-4.54
X4.4339Y-3.2209
X4.4339Y-3.4433
X4.45Y-3.68
X4.45Y-4.8
X4.4559Y-5.2031
X4.4567Y-2.2463
X4.46Y-2.74
X4.46Y-2.97
X4.465Y-3.2787
X4.47Y-2.84
X4.4713Y-3.5031
X4.4819Y-3.3866
X4.49Y-3.73
X4.5035Y-3.3343
X4.513Y-3.2209
X4.5173Y-3.4394
X4.54Y-3.69
X4.5449Y-3.5031
X4.5472Y-3.2768
X4.55Y-4.8
X4.5524Y-3.3902
X4.56Y-2.81
X4.5626Y-4.1681
X4.5626Y-4.2508
X4.5626Y-4.3299
X4.5677Y-5.1988
X4.5772Y-3.2157
X4.58Y-2.04
X4.5866Y-3.3268
X4.5976Y-3.4413
X4.6Y-4.6
X4.6035Y-4.2925
X4.6087Y-4.2102
X4.61Y-2.19
X4.6181Y-3.859
X4.6189Y-3.9389
X4.62Y-3.73
X4.622Y-4.0283
X4.6232Y-3.2807
X4.6283Y-3.5024
X4.6358Y-3.3941
X4.6417Y-4.3287
X4.6437Y-4.1697
X4.6437Y-4.2508
X4.65Y-3.68
X4.6547Y-3.2197
X4.6583Y-3.8956
X4.6583Y-3.9877
X4.66Y-2.86
X4.66Y-4.42
X4.67Y-4.57
X4.6705Y-3.3299
X4.6724Y-3.4441
X4.68Y-1.95
X4.68Y-2.75
X4.6811Y-4.2898
X4.6839Y-4.2087
X4.69Y-3.27
X4.69Y-4.77
X4.692Y-3.5091
X4.6945Y-3.9432
X4.6959Y-3.389
X4.6972Y-3.8578
X4.6972Y-4.0306
X4.7Y-2.93
X4.7189Y-4.1669
X4.7189Y-4.3287
X4.7224Y-4.2488
X4.73Y-2.82
X4.7346Y-3.8968
X4.7374Y-3.9897
X4.74Y-3.73
X4.7516Y-4.2031
X4.752Y-4.2921
X4.7701Y-3.8558
X4.7799Y-3.9424
X4.7819Y-4.0271
X4.7953Y-4.3244
X4.7965Y-4.1669
X4.7972Y-4.248
X4.8Y-2.75
X4.8094Y-3.9011
X4.8154Y-3.9905
X4.82Y-3.69
X4.86Y-3.2
X4.86Y-3.26
X4.87Y-2.78
X4.87Y-3.44
X4.88Y-3.73
X4.89Y-2.86
X4.91Y-2.93
X4.91Y-3.35
X4.92Y-3.44
X4.9291Y-4.06
X4.94Y-3.67
X4.96Y-3.19
X4.96Y-3.24
X4.96Y-3.29
X4.96Y-4.86
X4.9665Y-2.6181
X4.97Y-3.44
X4.97Y-3.49
X4.97Y-3.56
X4.98Y-3.35
X4.98Y-3.75
X4.99Y-2.96
X4.99Y-4.04
X5.Y-3.53
X5.01Y-2.04
X5.01Y-3.11
X5.02Y-3.24
X5.03Y-3.29
X5.03Y-3.47
X5.04Y-3.42
X5.04Y-3.68
X5.0472Y-4.1378
X5.05Y-3.02
X5.05Y-3.54
X5.06Y-3.08
X5.0638Y-3.7835
X5.07Y-3.2
X5.07Y-3.34
X5.08Y-3.51
X5.0846Y-2.5571
X5.0866Y-4.0866
X5.1Y-3.25
X5.11Y-2.5
X5.11Y-3.44
X5.12Y-3.55
X5.12Y-3.74
X5.13Y-3.33
X5.13Y-3.64
X5.23Y-4.66
X5.27Y-2.53
X5.298Y-2.2079
X5.3189Y-5.0244
X5.32Y-1.94
X5.32Y-3.44
X5.32Y-3.65
X5.32Y-3.76
X5.32Y-3.76
X5.32Y-3.76
X5.33Y-2.51
X5.33Y-2.57
X5.33Y-2.63
X5.33Y-2.7
X5.33Y-3.23
X5.34Y-3.31
X5.34Y-3.53
X5.3425Y-4.9508
X5.36Y-2.41
X5.36Y-3.71
X5.3677Y-4.7259
X5.378Y-4.1496
X5.38Y-3.48
X5.3819Y-3.9211
X5.39Y-2.57
X5.39Y-3.27
X5.3996Y-4.8976
X5.4Y-2.69
X5.42Y-2.52
X5.43Y-2.62
X5.437Y-4.0945
X5.46Y-2.7
X5.47Y-2.58
X5.48Y-2.52
X5.48Y-2.65
X5.5354Y-3.9213
X5.6142Y-4.2512
X5.6142Y-4.3185
X5.6142Y-4.3185
X5.6142Y-4.3185
X5.6142Y-4.3185
X5.6142Y-4.3185
X5.6142Y-4.3185
X5.6142Y-4.3185
X5.6142Y-4.3185
X5.6142Y-4.3752
T3
X1.8346Y-4.7087
X2.7874Y-4.8346
X4.1693Y-3.9685
X4.4488Y-4.8465
X5.3957Y-2.2008
X5.3976Y-2.313
X5.4622Y-2.1673
X5.5465Y-2.2569
X5.5472Y-2.1654
X5.6056Y-2.502
X5.6057Y-2.3181
X5.6072Y-2.4126
X5.6417Y-2.1831
T4
X4.51Y-4.46
X4.51Y-4.96
X4.61Y-4.46
X4.61Y-4.96
X4.71Y-4.46
X4.71Y-4.96
X4.81Y-4.46
X4.81Y-4.96
X4.91Y-4.46
X4.91Y-4.96
X5.01Y-4.46
X5.01Y-4.96
X5.11Y-4.46
X5.11Y-4.96
X5.21Y-4.46
X5.21Y-4.96
X2.82Y-4.46
X2.82Y-4.96
X2.92Y-4.46
X2.92Y-4.96
X3.02Y-4.46
X3.02Y-4.96
X3.12Y-4.46
X3.12Y-4.96
X3.22Y-4.46
X3.22Y-4.96
X3.32Y-4.46
X3.32Y-4.96
X3.42Y-4.46
X3.42Y-4.96
X3.52Y-4.46
X3.52Y-4.96
X3.67Y-4.46
X3.67Y-4.96
X3.77Y-4.46
X3.77Y-4.96
X3.87Y-4.46
X3.87Y-4.96
X3.97Y-4.46
X3.97Y-4.96
X4.07Y-4.46
X4.07Y-4.96
X4.17Y-4.46
X4.17Y-4.96
X4.27Y-4.46
X4.27Y-4.96
X4.37Y-4.46
X4.37Y-4.96
X1.97Y-4.46
X1.97Y-4.96
X2.07Y-4.46
X2.07Y-4.96
X2.17Y-4.46
X2.17Y-4.96
X2.27Y-4.46
X2.27Y-4.96
X2.37Y-4.46
X2.37Y-4.96
X2.47Y-4.46
X2.47Y-4.96
X2.57Y-4.46
X2.57Y-4.96
X2.67Y-4.46
X2.67Y-4.96
T5
X3.8816Y-1.9776
X4.0784Y-1.9776
T6
X2.8319Y-3.9031
X2.8319Y-4.0015
X2.8319Y-4.0999
X2.5619Y-3.9031
X2.5619Y-4.0015
X2.5619Y-4.0999
X2.2919Y-3.9031
X2.2919Y-4.0015
X2.2919Y-4.0999
X2.0219Y-3.9031
X2.0219Y-4.0015
X2.0219Y-4.0999
T7
X2.Y-3.16
X2.Y-3.2584
X3.56Y-4.21
X3.66Y-4.21
X3.76Y-4.21
X3.86Y-4.21
X2.369Y-4.6097
X2.369Y-4.7097
X2.369Y-4.8097
X4.81Y-4.6076
X4.81Y-4.7076
X4.81Y-4.8076
X4.269Y-4.6087
X4.269Y-4.7087
X4.269Y-4.8087
X4.71Y-5.2
X4.81Y-5.2
X4.91Y-5.2
X5.01Y-5.2
X5.6142Y-4.5531
X5.6142Y-4.6531
X3.319Y-4.6087
X3.319Y-4.7087
X3.319Y-4.8087
X2.1438Y-1.8949
X2.2438Y-1.8949
X2.3438Y-1.8949
X2.4438Y-1.8949
X2.5438Y-1.8949
X2.6438Y-1.8949
X2.7438Y-1.8949
X2.8438Y-1.8949
X2.5699Y-4.6093
X2.5699Y-4.7093
X2.5699Y-4.8093
X3.87Y-5.2
X3.87Y-5.3
X3.97Y-5.2
X3.97Y-5.3
X4.07Y-5.2
X4.07Y-5.3
X4.17Y-5.2
X4.17Y-5.3
X5.01Y-4.6076
X5.01Y-4.7076
X5.01Y-4.8076
X3.119Y-4.6087
X3.119Y-4.7087
X3.119Y-4.8087
X3.97Y-3.22
X3.97Y-3.32
X3.97Y-3.42
X4.169Y-4.6087
X4.169Y-4.7087
X4.169Y-4.8087
X3.419Y-4.6087
X3.419Y-4.7087
X3.419Y-4.8087
X3.02Y-5.2
X3.12Y-5.2
X3.22Y-5.2
X3.32Y-5.2
X4.069Y-4.6087
X4.069Y-4.7087
X4.069Y-4.8087
X2.469Y-4.6097
X2.469Y-4.7097
X2.469Y-4.8097
X2.17Y-5.2
X2.27Y-5.2
X2.37Y-5.2
X2.47Y-5.2
X3.959Y-4.6087
X3.959Y-4.7087
X3.959Y-4.8087
X5.6152Y-4.8553
X5.6152Y-4.9553
X2.269Y-4.6097
X2.269Y-4.7097
X2.269Y-4.8097
X3.219Y-4.6087
X3.219Y-4.7087
X3.219Y-4.8087
X4.91Y-4.6076
X4.91Y-4.7076
X4.91Y-4.8076
X5.215Y-5.2008
X5.315Y-5.2008
X5.11Y-4.6076
X5.11Y-4.7076
X5.11Y-4.8076
X2.Y-3.48
X2.Y-3.5784
X3.93Y-2.19
X4.03Y-2.19
T8
X3.2595Y-3.4833
X3.2595Y-3.5833
X3.3595Y-3.4833
X3.3595Y-3.5833
X3.4595Y-3.4833
X3.4595Y-3.5833
X3.5595Y-3.4833
X3.5595Y-3.5833
T9
X5.2181Y-3.9203
X5.2181Y-4.1203
X5.2181Y-3.498
X5.2181Y-3.698
X5.2181Y-2.6752
X5.2181Y-2.8752
X5.2181Y-3.0752
X5.2181Y-3.2752
T3
X3.8422Y-1.8851G85X3.8422Y-1.8575
G05
X4.1178Y-1.8575G85X4.1178Y-1.8851
G05
T0
M30
